<?xml version="1.0" encoding="UTF-8"?>
<svg width="24px" height="24px" viewBox="0 0 24 24" version="1.1" xmlns="http://www.w3.org/2000/svg" xmlns:xlink="http://www.w3.org/1999/xlink">
    <!-- Generator: Sketch 60 (88103) - https://sketch.com -->
    <title>Group 10</title>
    <desc>Created with Sketch.</desc>
    <g id="Desktop" stroke="none" stroke-width="1" fill="none" fill-rule="evenodd">
        <g id="05_rabot_web_rund--copy-6" transform="translate(-1108.000000, -301.000000)">
            <g id="Group-10" transform="translate(1108.000000, 301.000000)">
                <g id="Group-8" transform="translate(5.000000, 4.000000)" stroke="#FFFFFF">
                    <g id="Group-7" transform="translate(0.000000, 0.001590)">
                        <path d="M10.4318675,4.05571843 C10.4318675,6.11186749 8.76395859,9.49969358 6.70780952,9.49969358 C4.64901035,9.49969358 2.98209524,6.11186749 2.98209524,4.05571843 C2.98209524,1.99791304 4.64901035,0.329672878 6.70780952,0.329672878 C8.76395859,0.329672878 10.4318675,1.99791304 10.4318675,4.05571843 Z" id="Stroke-3"></path>
                        <path d="M3.59148654,6.61783851 C1.45749068,8.13701035 -6.6252588e-05,10.9020621 -6.6252588e-05,12.6507992 C-6.6252588e-05,15.1640911 3.00250104,14.8987495 6.70767702,14.8987495 C10.4111967,14.8987495 13.4127702,15.1640911 13.4127702,12.6507992 C13.4127702,10.9020621 11.9555445,8.13701035 9.82187992,6.61783851" id="Stroke-5"></path>
                    </g>
                </g>
                <g id="Group-6" fill="#008E94">
                    <circle id="Oval" cx="12" cy="12" r="12"></circle>
                </g>
                <g id="Group-8" transform="translate(5.000000, 10.000000)" fill="#FFFFFF" stroke="#008E94">
                    <g id="Group-7" transform="translate(0.000000, 0.001590)">
                        <path d="M3.59148654,0.617838509 C1.45749068,2.13701035 -6.62525872e-05,4.90206211 -6.62525872e-05,6.65079917 C-6.62525872e-05,9.1640911 3.00250104,8.89874948 6.70767702,8.89874948 C10.4111967,8.89874948 13.4127702,9.1640911 13.4127702,6.65079917 C13.4127702,4.90206211 11.9555445,2.13701035 9.82187992,0.617838509" id="Stroke-5"></path>
                    </g>
                </g>
                <path d="M15.4318675,8.05730849 C15.4318675,10.1134576 13.7639586,13.5012836 11.7078095,13.5012836 C9.64901035,13.5012836 7.98209524,10.1134576 7.98209524,8.05730849 C7.98209524,5.99950311 9.64901035,4.33126294 11.7078095,4.33126294 C13.7639586,4.33126294 15.4318675,5.99950311 15.4318675,8.05730849 Z" id="Stroke-3" stroke="#008E94" fill="#FFFFFF"></path>
            </g>
        </g>
    </g>
</svg>