<svg height="30" viewBox="0 0 116 30" width="116" xmlns="http://www.w3.org/2000/svg"><g fill="none" fill-rule="evenodd"><g fill="#454845"><path d="m48.6793812 20.485903h1.3787101v-1.267153h-1.3787101zm0 1.0442344h1.3787101v6.5813239c0 .6022286-.137512 1.0675712-.4110998 1.3960279-.2743058.3284566-.7338759.4925108-1.3787101.4925108-.1371529 0-.2520454-.0038314-.3446775-.0114942-.0926321-.0080112-.1831099-.0198537-.2721516-.0355277v-1.0557286c.0890417.0156739.1734159.0275165.2541997.0355276.0804247.0073145.1529506.0114943.2175776.0114943.2495322 0 .4049961-.0741901.4653147-.2229187.0606776-.1487285.0908369-.3712988.0908369-.6687558z"/><path d="m58.2406639 27.4957626h-1.3059935v-.8262885h-.0231977c-.1634223.2981454-.4064784.5373431-.7291682.7169118-.3226898.1799094-.6512656.2698641-.9853811.2698641-.7928752 0-1.3662382-.1931982-1.7197428-.5795945-.3541971-.3863964-.5311225-.9693983-.5311225-1.750028v-3.7641275h1.3295374v3.6377139c0 .5206469.1011003.887962.3033007 1.1019452.2022005.2143239.4861122.3213154.8513887.3213154.2797569 0 .5131184-.0419107.6997383-.1264136.18662-.0838214.3379241-.1966055.4546049-.3383523.1166808-.1414061.2001231-.3117749.2510194-.5107656.0502039-.19865.0758252-.4129739.0758252-.642631v-3.442812h1.3291912z"/><path d="m61.596817 25.489009c.0421274.4014866.2009442.682134.4775686.8426571.2762517.1608806.6069335.2409634.9920454.2409634.1334657 0 .2863175-.0100103.4581826-.030031.1714922-.0200207.3329186-.0582746.4831608-.114404.1506149-.0561295.2743876-.1387149.3705723-.2470412.0961848-.1083263.1401763-.2506163.1319745-.4272275-.0085746-.1766112-.0753074-.3210462-.2009442-.4336627-.1256367-.1122589-.2870631-.2027096-.4835336-.2709945-.1964704-.0679273-.4205288-.1262019-.6718022-.1744661s-.506275-.1001035-.766123-.1565905c-.267677-.0561294-.5252882-.1244143-.7720879-.2048547-.2467998-.0797252-.4689941-.1884091-.6654645-.3249788-.1964705-.1365698-.3534232-.3110359-.4708581-.5237559-.1170621-.2123624-.1755932-.4758492-.1755932-.7886726 0-.3371344.0857461-.6202843.2572384-.8490923.1714923-.2284505.3892129-.4132845.6531618-.5541444.2635761-.1401449.5562314-.2381034.8787114-.2949479.32248-.0557719.6300476-.0840154.9230757-.0840154.3347827 0 .6550258.0343212.9603566.1022486.3057036.0686424.5819552.1787562.8291277.3314141.2464269.1526578.4518448.3510773.6151353.5959734.1632904.2448961.2654402.5402014.3075676.8848435h-1.4942194c-.0671057-.3289115-.2240584-.5498543-.4708581-.6621132-.2471725-.1122589-.5297619-.1687459-.8473954-.1687459-.1006585 0-.2199575.0082228-.3578969.0243108-.1383122.0160881-.2680498.0461191-.3892128.0904507-.1219087.043974-.2244312.1079688-.3079405.1926993-.0835092.0840154-.1256367.1944868-.1256367.330699 0 .168746.0607679.3053157.1823037.4097094.121163.1043937.2803526.1905542.4771959.2588391.1964704.0682849.4205288.1262019.6718022.1744661s.5103759.100461.7784257.1565905c.2594753.0561294.5148496.1244143.7657502.2048547.2512734.0800828.4753318.1887666.6718023.3249788.1964704.1365698.35566.3092484.4771958.5176782.1215358.2087873.1823037.4658388.1823037.770797 0 .3689529-.0883558.6821339-.2635761.9391854-.175966.2570515-.4041252.4658388-.6844778.6260045-.2807254.1605231-.5923939.2774297-.9357512.3492897-.3433573.0722175-.6822409.1083263-1.0170236.1083263-.4100902 0-.7892372-.0443316-1.1363226-.1326371-.3474582-.0879481-.6490609-.2227304-.9040624-.4032742-.2553743-.1801863-.4563185-.4050617-.6024597-.6739111-.1468869-.2688494-.2244312-.5881081-.2322602-.9574186z"/><path d="m67.3858921 21.5121138h1.0930093v-1.8246138h1.4487939v1.8246138h1.3088192v1.0005496h-1.3088192v3.2487281c0 .1411883.0060366.2628059.0192418.3648529.0124506.102047.0418792.1883675.0886631.2589617.0464067.0705941.1165827.1237144.2097733.158662.0931907.0356466.2203374.0531204.381063.0531204.1018683 0 .2033593-.0017474.3048504-.0059411.101491-.0038442.2033593-.0178233.3052276-.0412382v1.0361961c-.1611028.015377-.3176782.0307539-.4704807.0464803-.1524252.0157265-.3090006.0237644-.4701034.0237644-.381063 0-.6881771-.0335497-.9209651-.0999501-.2331652-.0667499-.4153963-.1649526-.5466933-.2942587-.1312969-.1293061-.2203374-.2921619-.266744-.4885674-.0464067-.196056-.0743262-.4197206-.0826266-.6709938v-3.5898166h-1.0930093z"/><path d="m78.4436628 25.489009c.0417547.4014866.2009442.682134.4771959.8426571.2762516.1608806.6069334.2409634.9920453.2409634.1338386 0 .2866904-.0100103.4585554-.030031.1714923-.0200207.3325459-.0582746.482788-.114404.1509877-.0561295.2743876-.1387149.3709452-.2470412.095812-.1083263.1401763-.2506163.1316016-.4272275-.0082018-.1766112-.0753074-.3210462-.2009441-.4336627-.1256367-.1122589-.2866903-.2027096-.4835336-.2709945-.1964705-.0679273-.4205289-.1262019-.6718023-.1744661-.2509006-.0482642-.5062749-.1001035-.7657502-.1565905-.2680498-.0561294-.5252882-.1244143-.7724607-.2048547-.2467997-.0797252-.4686212-.1884091-.6654645-.3249788-.1964705-.1365698-.3534232-.3110359-.4704853-.5237559-.1174349-.2123624-.1759659-.4758492-.1759659-.7886726 0-.3371344.0857461-.6202843.2572383-.8490923.1714923-.2284505.3892129-.4132845.6531618-.5541444.2635762-.1401449.5566042-.2381034.8790842-.2949479.3221072-.0557719.6296748-.0840154.9227029-.0840154.3347827 0 .6550258.0343212.9607294.1022486.3053308.0686424.5815824.1787562.828755.3314141.2464269.1526578.4518448.3510773.615508.5959734.1629177.2448961.2650674.5402014.3075677.8848435h-1.4945923c-.0671057-.3289115-.2240584-.5498543-.4708581-.6621132-.2471725-.1122589-.5297619-.1687459-.8473954-.1687459-.1006585 0-.2199574.0082228-.3578969.0243108-.1379394.0160881-.2680498.0461191-.3892128.0904507-.1215358.043974-.2244312.1079688-.3075676.1926993-.0838821.0840154-.1256368.1944868-.1256368.330699 0 .168746.0603951.3053157.181931.4097094.121163.1043937.2803525.1905542.4771958.2588391s.4205288.1262019.6718022.1744661c.2512735.0482642.5103759.100461.7784257.1565905.2594753.0561294.5148496.1244143.766123.2048547.2512735.0800828.474959.1887666.6714295.3249788.1968433.1365698.3560328.3092484.4775686.5176782.121163.2087873.1819309.4658388.1819309.770797 0 .3689529-.0879829.6821339-.2635761.9391854-.175966.2570515-.4041252.4658388-.6844778.6260045-.2807253.1605231-.5923939.2774297-.9357512.3492897-.3433573.0722175-.6822409.1083263-1.0166508.1083263-.4104629 0-.7892371-.0443316-1.1366954-.1326371-.3474582-.0879481-.648688-.2227304-.9040624-.4032742-.2550015-.1801863-.4563185-.4050617-.6024597-.6739111-.1468869-.2688494-.2244312-.5881081-.2322602-.9574186z"/><path d="m84.7136929 21.7233191h1.3167015v.8259016h.036927c.1053506-.1448053.2193899-.2790484.3410318-.4013664.122004-.1226586.2581271-.2255556.4087314-.3097131.1502422-.0841574.3232924-.151279.5184263-.2010239.1947719-.0497449.4185061-.0746173.6704787-.0746173.3819411 0 .7374542.0800688 1.066901.240888.3294469.1608191.5625939.4095436.7012513.7458327.2353192-.3056245.5075654-.5465124.8167386-.7230046.3088112-.17547.6950967-.2637161 1.1584945-.2637161.6664964 0 1.1849227.1529826 1.5545549.4592885.3699942.3059652.5549913.8184058.5549913 1.5373218v4.0971397h-1.3901935v-3.4657884c0-.2367993-.0079646-.4531555-.024256-.6483872-.0166533-.1952317-.0633551-.3632059-.1404674-.5049448-.0774743-.1413982-.1929618-.2504281-.3475484-.3270898-.1542246-.0763209-.3656498-.1148221-.6339137-.1148221-.4713625 0-.8131183.137991-1.0241816.4132915-.2117872.2753006-.3171378.6654232-.3171378 1.1707087v3.4770321h-1.3901935v-3.8102548c0-.4129507-.0789224-.7247082-.2374914-.9349315-.1585689-.210564-.4492786-.315846-.8721291-.315846-.1788426 0-.3515307.0347533-.5180643.1035784-.1668956.0684844-.3131555.168315-.4387798.2981287-.1263483.1301545-.2277166.2909736-.3048289.4821166-.0774743.1914838-.1162114.4092029-.1162114.6541795v3.5230291h-1.3898315z"/><path d="m96.2655602 27.65625h1.4439834v-6.1092847h-1.4439834zm0-7.1611216h1.4439834v-1.2763784h-1.4439834z"/><path d="m100.116183 27.65625h1.443983v-8.4375h-1.443983z"/><path d="m108.389428 23.8272908c-.01555-.2170101-.060125-.4254399-.133726-.6263619-.073946-.2005646-.174845-.3750307-.302697-.5237559-.128197-.1483677-.283346-.2688494-.465794-.3610877-.182102-.0922382-.385973-.1387148-.610577-.1387148-.232897 0-.44437.0421865-.634419.1265594-.190395.084373-.353492.2005645-.488945.3489322-.135799.1487253-.2443.3235489-.325849.5241134-.081548.2009221-.126124.4175746-.133726.6503153zm-3.095733.9030767c0 .2409634.032482.4737041.098826.6982219.065654.2248754.164479.4215073.296823.5898957.131652.1687459.298205.3031706.500348.4036316.201453.1004611.442297.1505128.721497.1505128.387701 0 .700418-.0861605.936771-.2588391.237043-.1726785.413616-.4315176.529719-.7765172h1.257091c-.0698.3367768-.190395.6381599-.361094.9027192-.170699.2649168-.376298.4876471-.616797.6685484-.240499.1805438-.510023.3171136-.808919.4093519-.298551.0922382-.610577.1383573-.936771.1383573-.473396 0-.892196-.0800828-1.256745-.2406059-.364895-.1608807-.673466-.3857561-.925368-.6742687-.252247-.2892276-.441951-.6342272-.570494-1.0357138-.127851-.4014865-.191777-.8430145-.191777-1.3245839 0-.441528.067727-.8608902.203871-1.2580866.135454-.3979114.32965-.7468437.581551-1.0478692.252248-.3010256.557018-.5398439.913965-.7164551.356602-.1766112.760198-.2649168 1.210442-.2649168.473051 0 .897725.1022486 1.274023.3071033.376297.2048546.688324.4754916.937116.8129835.248101.3367768.428475.7243203.541123 1.1619157.112301.4372378.141673.8891336.087422 1.354615z"/></g><path d="m0 16.40625h3.85062241v-15.9375h-3.85062241z" fill="#e7792b"/><path d="m21.9141111 12.9198573c-1.1608901 2.7904465-3.9369627 3.9551427-7.6012787 3.9551427-4.8241354 0-8.05557099-1.8893577-8.05557099-6.3286419 0-4.43859499 3.23143559-6.3276081 8.05557099-6.3276081 5.2802122 0 7.8282464 2.57025698 7.8282464 7.0091966v.3518209h-11.7416558v.0437623c0 1.1205893 1.182659 2.8342088 3.9134094 2.8342088 1.6158963 0 2.7539469-.5272145 3.3227937-1.5378813zm-3.9144801-3.62537525v-.04445142c0-.63713704-.8418505-2.61470841-3.7774429-2.61470841-3.1632739 0-3.8227651 2.32939231-3.8227651 2.61470841v.04445142z" fill="#e7792b"/><g fill="#454845"><g transform="translate(40.431535)"><path d="m8.37313992 3.96210938c4.81523218 0 8.04046538 1.92796875 8.04046538 6.45644532 0 4.5284766-3.2252332 6.4560937-8.04046538 6.4560937-4.81487602 0-8.04010921-1.9276171-8.04010921-6.4560937 0-4.52847657 3.22523319-6.45644532 8.04010921-6.45644532m0 10.13238282c2.47582508 0 3.90696668-1.3225781 3.90696668-3.6759375 0-2.35441407-1.4311416-3.6769922-3.90696668-3.6769922-2.47546888 0-3.90625428 1.32257813-3.90625428 3.6769922 0 2.3533594 1.4307854 3.6759375 3.90625428 3.6759375"/><path d="m23.1069882 7.05550781v9.37089849h-3.997437v-9.37089849h-2.5210602v-2.64550781h2.5210602v-.45597656c0-3.22804688.9998045-3.8334375 4.7247618-3.8334375.544247 0 1.5436953.0225 2.5203479.045v2.46585937c-.6817334-.0225-1.3399588-.04464843-2.0213361-.04464843-.7038168 0-1.2263366.11214843-1.2263366 1.23257812v.590625h5.072396v-.45597656c0-3.22804688.9998045-3.8334375 4.7247619-3.8334375.5446031 0 1.5444076.0225 2.5214164.045v2.46585937c-.6817335-.0225-1.340315-.04464843-2.0220485-.04464843-.7038167 0-1.2266928.11214843-1.2266928 1.23257812v.590625h3.2031499v2.64550781h-3.2031499v9.37089849h-3.997437v-9.37089849z"/></g><path d="m77.4937759 2.8125h3.8506224v-2.8125h-3.8506224z"/><path d="m77.4937759 16.40625h3.8506224v-11.71875h-3.8506224z"/><path d="m94.5618698 9.00847678c-.4742551-1.55993476-1.6940719-2.06544045-3.2978265-2.06544045-2.461239 0-3.8843586 1.29632749-3.8843586 3.60332177 0 2.3073389 1.4231196 3.604011 3.8843586 3.604011 1.7617215 0 3.0941695-.9224531 3.2978265-2.3948634h4.1103294c-.7228938 4.1746432-3.7940412 5.1194943-7.7464036 5.1194943-4.5626249 0-7.6560861-1.8893577-7.6560861-6.3286419 0-4.43859499 3.2064465-6.3276081 7.9943338-6.3276081 3.07221 0 6.6625942.9007443 7.4081559 4.78972678z"/><path d="m115.772675 12.9198573c-1.160176 2.7904465-3.936249 3.9551427-7.600208 3.9551427-4.824849 0-8.056284-1.8893577-8.056284-6.3286419 0-4.43859499 3.231435-6.3276081 8.056284-6.3276081 5.278785 0 7.827533 2.57025698 7.827533 7.0091966v.3518209h-11.741656v.0437623c0 1.1205893 1.183016 2.8342088 3.914123 2.8342088 1.614826 0 2.752877-.5272145 3.322437-1.5378813zm-3.91448-3.62537525v-.04445142c0-.63713704-.841493-2.61470841-3.777086-2.61470841-3.163631 0-3.822765 2.32939231-3.822765 2.61470841v.04445142z"/><path d="m34.3227795 10.3125 6.1087558 6.09375h-6.1087558l-3.0364724-3.0470529z"/></g><path d="m34.6556017 10.5465329-6.2383199 5.8597171h-6.276203l6.276203-5.8597171-6.276203-5.8590329h6.276203z" fill="#e7792b"/><path d="m34.3227795 10.3125 6.1087558-6.09375h-6.1087558l-3.0364724 3.0470529z" fill="#454845"/></g></svg>