<svg height="828pt" preserveAspectRatio="xMidYMid meet" viewBox="0 0 828 828" width="828pt" xmlns="http://www.w3.org/2000/svg"><g transform="matrix(.1 0 0 -.1 0 828)"><path d="m3710 7283c-311-21-505-47-745-99-968-207-1665-727-2079-1553-193-384-331-895-387-1433-22-209 12-668 71-958 171-847 636-1474 1375-1850 591-301 1381-447 2310-427 707 16 1252 111 1740 304 386 152 706 361 970 634 450 465 693 1070 745 1854 14 215 12 381-5 493-139 882-445 1561-929 2060-225 231-440 395-716 541-466 249-991 387-1630 431-131 9-609 11-720 3zm770-314c885-67 1595-367 2087-883 441-464 725-1112 843-1926 23-161-15-639-71-895-107-488-297-853-606-1168-402-410-988-670-1753-777-546-77-1266-73-1811 10-1533 233-2326 1099-2366 2580-5 180-2 252 11 360 84 663 281 1206 588 1622 311 422 759 734 1303 908 493 157 1128 218 1775 169z"/><path d="m2338 5107c-178-67-311-250-362-501-21-102-21-302 0-404 57-278 221-480 415-511 240-39 466 189 525 532 22 125 15 320-15 437-50 189-162 350-293 420-55 30-74 34-148 37-55 2-98-2-122-10z"/><path d="m5589 5104c-105-36-214-146-279-279-72-148-85-214-84-425 0-172 2-191 27-273 85-278 253-440 452-439 161 0 300 104 395 297 69 139 84 213 84 415 0 152-3 186-23 260-52 192-162 350-293 420-55 30-74 34-148 37-59 2-99-2-131-13z"/><path d="m3250 2460c-51-51-11-103 153-200 404-239 847-257 1256-51 81 41 239 149 251 171 15 29 12 54-10 78-32 34-67 27-150-29-152-102-321-175-472-204-110-21-300-21-403 0-162 33-341 110-481 206-77 54-112 61-144 29z"/></g></svg>