<svg height="32" viewBox="0 0 32 32" width="32" xmlns="http://www.w3.org/2000/svg"><g fill="none" fill-rule="evenodd" transform="translate(1 1)"><circle cx="14.893274" cy="14.893274" r="14.893274" stroke="#ff6b00"/><path d="m23.7918584 16.3569027v6.1401769h-3.5599115v-5.7286725c0-1.4384071-.5139823-2.420708-1.8029204-2.420708-.9836283 0-1.5679646.6613274-1.8260177 1.3016814-.0937168.2288496-.1178761.5466372-.1178761.8676107v5.979823h-3.5601769s.0477876-9.7024779 0-10.7068142h3.5604424v1.5172566c-.0071681.0119469-.0172566.0236284-.0236283.0350443h.0236283v-.0350443c.4730974-.7279646 1.3168142-1.7686725 3.2084071-1.7686725 2.3421239 0 4.0980531 1.5302655 4.0980531 4.8183186zm-14.59115044-9.72796465c-1.21778761 0-2.01451327.79938053-2.01451327 1.84964602 0 1.0279646.77362832 1.85044243 1.96778761 1.85044243h.02309735c1.24168145 0 2.01371685-.82247783 2.01371685-1.85044243-.0236284-1.05026549-.7720354-1.84964602-1.99008854-1.84964602zm-1.80292035 15.86814155h3.55884959v-10.7070796h-3.55884959z" fill="#ff6b00" fill-rule="nonzero"/></g></svg>